<svg width="35" height="35" xmlns="http://www.w3.org/2000/svg"><g id="Home" stroke="none" stroke-width="1" fill="none" fill-rule="evenodd"><g id="New-Approach---Wide" transform="translate(-349 -5266)" fill="#EF6351" fill-rule="nonzero"><g id="Group-28" transform="translate(0 5266)"><path d="M366.5 0c9.665 0 17.5 7.835 17.5 17.5S376.165 35 366.5 35 349 27.165 349 17.5 356.835 0 366.5 0zm0 1.094c-9.06 0-16.406 7.345-16.406 16.406 0 9.06 7.345 16.406 16.406 16.406 9.06 0 16.406-7.345 16.406-16.406 0-9.06-7.345-16.406-16.406-16.406zm0 8.75a7.656 7.656 0 110 15.312 7.656 7.656 0 010-15.312z" id="Combined-Shape"/></g></g></g></svg>