<svg width="506" height="506" xmlns="http://www.w3.org/2000/svg"><g id="Page-1" stroke="none" stroke-width="1" fill="none" fill-rule="evenodd"><g id="Landing-page" transform="translate(-686 -1465)" fill="#26AC77"><path d="M688.21 1966.584c1.22 0 2.206.989 2.206 2.21a2.209 2.209 0 11-2.206-2.21zm45.6 0a2.209 2.209 0 11-.005 4.417 2.209 2.209 0 01.004-4.417zm45.599 0a2.209 2.209 0 11-.005 4.417 2.209 2.209 0 01.005-4.417zm45.595 0a2.21 2.21 0 110 4.416 2.208 2.208 0 010-4.416zm45.6 0a2.21 2.21 0 11.001 4.418 2.21 2.21 0 01-.001-4.418zm45.6 0c1.22 0 2.206.989 2.206 2.21a2.205 2.205 0 11-4.413 0c0-1.221.985-2.21 2.206-2.21zm45.598 0c1.221 0 2.207.989 2.207 2.21a2.209 2.209 0 11-2.206-2.21zm45.6 0a2.209 2.209 0 11-.005 4.417 2.209 2.209 0 01.005-4.417zm45.595 0a2.21 2.21 0 110 4.416 2.208 2.208 0 010-4.416zm45.6 0a2.21 2.21 0 110 4.416 2.208 2.208 0 010-4.416zm45.6 0a2.21 2.21 0 110 4.418 2.21 2.21 0 010-4.418zm45.598 0c1.221 0 2.207.989 2.207 2.21a2.205 2.205 0 11-4.413 0c0-1.221.985-2.21 2.206-2.21zm-501.585-45.6c1.22 0 2.206.99 2.206 2.21 0 1.222-.985 2.21-2.206 2.21a2.21 2.21 0 110-4.42zm45.6 0a2.21 2.21 0 012.206 2.21 2.209 2.209 0 11-4.417 0 2.21 2.21 0 012.21-2.21zm45.599 0a2.21 2.21 0 012.206 2.21 2.209 2.209 0 11-4.416 0 2.21 2.21 0 012.21-2.21zm45.595 0a2.21 2.21 0 11.002 4.42 2.21 2.21 0 01-.002-4.42zm45.6 0a2.21 2.21 0 11.001 4.42 2.21 2.21 0 01-.001-4.42zm45.6 0c1.22 0 2.206.99 2.206 2.21a2.206 2.206 0 11-4.413 0c0-1.22.985-2.21 2.206-2.21zm45.598 0c1.221 0 2.207.99 2.207 2.21a2.21 2.21 0 11-2.206-2.21zm45.6 0a2.21 2.21 0 012.206 2.21 2.209 2.209 0 11-4.416 0 2.21 2.21 0 012.21-2.21zm45.595 0a2.21 2.21 0 11.002 4.42 2.21 2.21 0 01-.002-4.42zm45.6 0a2.21 2.21 0 11.001 4.42 2.21 2.21 0 01-.001-4.42zm45.6 0a2.21 2.21 0 110 4.42 2.21 2.21 0 010-4.42zm45.598 0c1.221 0 2.207.99 2.207 2.21a2.206 2.206 0 11-4.413 0c0-1.22.985-2.21 2.206-2.21zm-499.379-45.595v4.416h-4.415v-4.416h4.415zm43.393 0a2.208 2.208 0 11-.002 4.415 2.208 2.208 0 01.002-4.415zm45.6 0a2.208 2.208 0 11-.003 4.415 2.208 2.208 0 01.003-4.415zm45.595 0a2.209 2.209 0 11.003 4.417 2.209 2.209 0 01-.003-4.417zm45.6 0a2.209 2.209 0 11.003 4.417 2.209 2.209 0 01-.003-4.417zm45.6 0c1.22 0 2.206.989 2.206 2.206a2.206 2.206 0 11-4.413 0c0-1.217.985-2.206 2.206-2.206zm45.598 0c1.221 0 2.207.989 2.207 2.206a2.21 2.21 0 11-2.206-2.206zm45.6 0a2.208 2.208 0 11-.003 4.415 2.208 2.208 0 01.003-4.415zm45.595 0a2.209 2.209 0 11.003 4.417 2.209 2.209 0 01-.003-4.417zm45.6 0a2.209 2.209 0 11.003 4.417 2.209 2.209 0 01-.003-4.417zm45.6 0a2.209 2.209 0 11.002 4.417 2.209 2.209 0 01-.003-4.417zm45.598 0c1.221 0 2.207.989 2.207 2.206a2.206 2.206 0 11-4.413 0c0-1.217.985-2.206 2.206-2.206zm-319.191-45.601a2.21 2.21 0 11.001 4.418 2.21 2.21 0 01-.001-4.418zm45.6 0c1.22 0 2.206.988 2.206 2.21a2.205 2.205 0 11-4.413 0c0-1.222.985-2.21 2.206-2.21zm273.591 0c1.221 0 2.207.988 2.207 2.21a2.205 2.205 0 11-4.413 0c0-1.222.985-2.21 2.206-2.21zm-501.585 0c1.22 0 2.206.988 2.206 2.21a2.209 2.209 0 11-2.206-2.21zm45.6 0a2.209 2.209 0 11-.005 4.417 2.209 2.209 0 01.004-4.418zm45.599 0a2.209 2.209 0 11-.005 4.417 2.209 2.209 0 01.005-4.418zm45.595 0a2.21 2.21 0 110 4.416 2.208 2.208 0 010-4.417zm227.993 0a2.21 2.21 0 110 4.416 2.208 2.208 0 010-4.417zm45.6 0a2.21 2.21 0 110 4.416 2.208 2.208 0 010-4.417zm45.6 0a2.21 2.21 0 110 4.418 2.21 2.21 0 010-4.418zm-182.395 0c1.221 0 2.207.988 2.207 2.21a2.209 2.209 0 11-2.206-2.21zm45.6 0a2.209 2.209 0 11-.005 4.417 2.209 2.209 0 01.005-4.418zm-273.593-45.6a2.21 2.21 0 012.207 2.21 2.209 2.209 0 11-4.417 0 2.21 2.21 0 012.21-2.21zm45.6 0a2.21 2.21 0 012.206 2.21 2.209 2.209 0 11-4.416 0 2.21 2.21 0 012.21-2.21zm45.595 0a2.21 2.21 0 11.002 4.419 2.21 2.21 0 01-.002-4.419zm45.6 0a2.21 2.21 0 11.001 4.419 2.21 2.21 0 01-.001-4.419zm45.6 0c1.22 0 2.206.99 2.206 2.21a2.206 2.206 0 11-4.413 0c0-1.22.985-2.21 2.206-2.21zm45.598 0c1.221 0 2.207.99 2.207 2.21a2.21 2.21 0 11-2.206-2.21zm45.6 0a2.21 2.21 0 012.206 2.21 2.209 2.209 0 11-4.416 0 2.21 2.21 0 012.21-2.21zm45.595 0a2.21 2.21 0 11.002 4.419 2.21 2.21 0 01-.002-4.419zm45.6 0a2.21 2.21 0 11.001 4.419 2.21 2.21 0 01-.001-4.419zm45.6 0a2.21 2.21 0 110 4.419 2.21 2.21 0 010-4.419zm45.598 0c1.221 0 2.207.99 2.207 2.21a2.206 2.206 0 11-4.413 0c0-1.22.985-2.21 2.206-2.21zm-501.585 0c1.22 0 2.206.99 2.206 2.21 0 1.221-.985 2.21-2.206 2.21a2.21 2.21 0 110-4.42zm136.794-45.596a2.209 2.209 0 11.003 4.418 2.209 2.209 0 01-.003-4.418zm136.798 0c1.221 0 2.207.99 2.207 2.207a2.21 2.21 0 11-2.206-2.206zm-273.592 0c1.22 0 2.206.99 2.206 2.207 0 1.22-.985 2.21-2.206 2.21a2.21 2.21 0 110-4.417zm45.6 0a2.208 2.208 0 11-.003 4.416 2.208 2.208 0 01.002-4.416zm45.599 0a2.208 2.208 0 11-.003 4.416 2.208 2.208 0 01.003-4.416zm227.993 0a2.208 2.208 0 11-.003 4.416 2.208 2.208 0 01.003-4.416zm45.595 0a2.209 2.209 0 11.003 4.418 2.209 2.209 0 01-.003-4.418zm45.6 0a2.209 2.209 0 11.003 4.418 2.209 2.209 0 01-.003-4.418zm45.6 0a2.209 2.209 0 11.002 4.418 2.209 2.209 0 01-.003-4.418zm45.598 0c1.221 0 2.207.99 2.207 2.207a2.206 2.206 0 11-4.413 0c0-1.218.985-2.207 2.206-2.207zm-319.191 0a2.209 2.209 0 11.003 4.418 2.209 2.209 0 01-.003-4.418zm45.6 0c1.22 0 2.206.99 2.206 2.207a2.206 2.206 0 11-4.413 0c0-1.218.985-2.207 2.206-2.207zm-45.6-45.6a2.21 2.21 0 11.001 4.418 2.21 2.21 0 01-.001-4.419zm91.198 0c1.221 0 2.207.988 2.207 2.21a2.209 2.209 0 11-2.206-2.21zm-45.599 0c1.221 0 2.207.988 2.207 2.21a2.205 2.205 0 11-4.413 0c0-1.222.985-2.21 2.206-2.21zm-91.199 0a2.21 2.21 0 110 4.416 2.208 2.208 0 010-4.417zm-45.595 0a2.209 2.209 0 11-.005 4.416 2.209 2.209 0 01.005-4.417zm273.588 0a2.21 2.21 0 110 4.416 2.208 2.208 0 010-4.417zm91.2 0a2.21 2.21 0 110 4.418 2.21 2.21 0 010-4.419zm-45.6 0a2.21 2.21 0 110 4.416 2.208 2.208 0 010-4.417zm-410.387 0c1.22 0 2.206.988 2.206 2.21a2.209 2.209 0 11-2.206-2.21zm45.6 0a2.209 2.209 0 11-.005 4.416 2.209 2.209 0 01.004-4.417zm273.592 0a2.209 2.209 0 11-.005 4.416 2.209 2.209 0 01.005-4.417zm182.393 0c1.221 0 2.207.988 2.207 2.21a2.205 2.205 0 11-4.413 0c0-1.222.985-2.21 2.206-2.21zm-410.386-45.6a2.21 2.21 0 012.206 2.21 2.209 2.209 0 11-4.416 0 2.21 2.21 0 012.21-2.21zm136.794 0c1.221 0 2.207.99 2.207 2.21a2.206 2.206 0 11-4.413 0c0-1.22.985-2.21 2.206-2.21zm273.592 0c1.221 0 2.207.99 2.207 2.21a2.206 2.206 0 11-4.413 0c0-1.22.985-2.21 2.206-2.21zm-227.993 0c1.221 0 2.207.99 2.207 2.21a2.21 2.21 0 11-2.206-2.21zm45.6 0a2.21 2.21 0 012.206 2.21 2.209 2.209 0 11-4.416 0 2.21 2.21 0 012.21-2.21zm136.794 0a2.21 2.21 0 11.002 4.419 2.21 2.21 0 01-.002-4.419zm-319.192 0a2.21 2.21 0 11.002 4.419 2.21 2.21 0 01-.002-4.419zm45.6 0a2.21 2.21 0 11.001 4.419 2.21 2.21 0 01-.001-4.419zm227.993 0a2.21 2.21 0 11.001 4.419 2.21 2.21 0 01-.001-4.419zm-410.387 0c1.22 0 2.206.99 2.206 2.21 0 1.221-.985 2.21-2.206 2.21a2.21 2.21 0 110-4.42zm45.6 0a2.21 2.21 0 012.206 2.21 2.209 2.209 0 11-4.417 0 2.21 2.21 0 012.21-2.21zm319.187 0a2.21 2.21 0 11.002 4.419 2.21 2.21 0 01-.002-4.419zm-319.188-45.596a2.208 2.208 0 11-.002 4.416 2.208 2.208 0 01.002-4.416zm182.394 0c1.221 0 2.207.99 2.207 2.207a2.206 2.206 0 11-4.413 0c0-1.218.985-2.207 2.206-2.207zm-45.6 0a2.209 2.209 0 11.004 4.417 2.209 2.209 0 01-.003-4.417zm319.192 0c1.221 0 2.207.99 2.207 2.207a2.206 2.206 0 11-4.413 0c0-1.218.985-2.207 2.206-2.207zm-136.798 0a2.209 2.209 0 11.003 4.417 2.209 2.209 0 01-.003-4.417zm-45.595 0a2.208 2.208 0 11-.003 4.416 2.208 2.208 0 01.003-4.416zm-227.993 0a2.208 2.208 0 11-.003 4.416 2.208 2.208 0 01.003-4.416zm45.595 0a2.209 2.209 0 11.003 4.417 2.209 2.209 0 01-.003-4.417zm319.192 0a2.209 2.209 0 11.003 4.417 2.209 2.209 0 01-.003-4.417zm-45.6 0a2.209 2.209 0 11.004 4.417 2.209 2.209 0 01-.003-4.417zm-136.794 0c1.221 0 2.207.99 2.207 2.207a2.21 2.21 0 11-2.206-2.206zm-273.592 0c1.22 0 2.206.99 2.206 2.207 0 1.22-.985 2.21-2.206 2.21a2.21 2.21 0 110-4.417zm227.993-45.6c1.221 0 2.207.988 2.207 2.21a2.21 2.21 0 01-2.207 2.21 2.209 2.209 0 01-2.206-2.21c0-1.222.985-2.21 2.206-2.21zm-45.6 0a2.21 2.21 0 11.002 4.418 2.21 2.21 0 01-.001-4.419zm319.192 0c1.221 0 2.207.988 2.207 2.21a2.21 2.21 0 01-2.207 2.21 2.209 2.209 0 01-2.206-2.21c0-1.222.985-2.21 2.206-2.21zm-136.798 0a2.21 2.21 0 11.002 4.418 2.21 2.21 0 01-.002-4.419zm-45.595 0a2.21 2.21 0 010 4.42 2.21 2.21 0 110-4.42zm-319.192 0c1.22 0 2.206.988 2.206 2.21a2.209 2.209 0 11-4.416 0 2.21 2.21 0 012.21-2.21zm45.6 0a2.21 2.21 0 010 4.42 2.21 2.21 0 110-4.42zm364.787 0a2.21 2.21 0 11.001 4.418 2.21 2.21 0 01-.001-4.419zm-136.795 0c1.221 0 2.207.988 2.207 2.21a2.209 2.209 0 11-4.417 0 2.21 2.21 0 012.21-2.21zm-182.393 0a2.21 2.21 0 010 4.42 2.21 2.21 0 110-4.42zm45.595 0a2.21 2.21 0 11.002 4.418 2.21 2.21 0 01-.002-4.419zm319.192 0a2.21 2.21 0 11.002 4.418 2.21 2.21 0 01-.002-4.419zm-136.794-45.6c1.217 0 2.206.989 2.206 2.21a2.209 2.209 0 11-4.416 0 2.21 2.21 0 012.21-2.21zm136.794 0a2.21 2.21 0 11.002 4.418 2.21 2.21 0 01-.002-4.418zm-410.387 0c1.218 0 2.207.989 2.207 2.21a2.209 2.209 0 11-4.417 0 2.21 2.21 0 012.21-2.21zm-45.6 0c1.222 0 2.207.989 2.207 2.21 0 1.22-.985 2.21-2.206 2.21a2.21 2.21 0 110-4.42zm501.586 0c1.221 0 2.207.989 2.207 2.21a2.206 2.206 0 11-4.413 0c0-1.221.985-2.21 2.206-2.21zm-227.993 0c1.221 0 2.207.989 2.207 2.21a2.21 2.21 0 11-2.206-2.21zm-91.198 0a2.21 2.21 0 11.001 4.418 2.21 2.21 0 01-.001-4.418zm182.393 0a2.21 2.21 0 11.002 4.418 2.21 2.21 0 01-.002-4.418zm45.6 0a2.21 2.21 0 11.001 4.418 2.21 2.21 0 01-.001-4.418zm-273.593 0a2.21 2.21 0 11.002 4.418 2.21 2.21 0 01-.002-4.418zm91.2 0c1.22 0 2.206.989 2.206 2.21a2.206 2.206 0 11-4.413 0c0-1.221.985-2.21 2.206-2.21zm-136.795 0c1.217 0 2.206.989 2.206 2.21a2.209 2.209 0 11-4.416 0 2.21 2.21 0 012.21-2.21zm-91.2-45.596c1.222 0 2.207.989 2.207 2.206 0 1.221-.985 2.21-2.206 2.21a2.21 2.21 0 110-4.416zm45.6 0a2.208 2.208 0 11-.002 4.416 2.208 2.208 0 01.002-4.416zm45.6 0a2.208 2.208 0 11-.003 4.416 2.208 2.208 0 01.003-4.416zm45.595 0a2.209 2.209 0 11.003 4.417 2.209 2.209 0 01-.003-4.417zm45.6 0a2.209 2.209 0 11.003 4.417 2.209 2.209 0 01-.003-4.417zm45.6 0c1.22 0 2.206.989 2.206 2.206a2.206 2.206 0 11-4.413 0c0-1.217.985-2.206 2.206-2.206zm45.598 0c1.221 0 2.207.989 2.207 2.206a2.21 2.21 0 11-2.206-2.206zm45.6 0a2.208 2.208 0 11-.003 4.416 2.208 2.208 0 01.003-4.416zm45.595 0a2.209 2.209 0 11.003 4.417 2.209 2.209 0 01-.003-4.417zm45.6 0a2.209 2.209 0 11.003 4.417 2.209 2.209 0 01-.003-4.417zm45.6 0a2.209 2.209 0 11.002 4.417 2.209 2.209 0 01-.003-4.417zm45.598 0c1.221 0 2.207.989 2.207 2.206a2.206 2.206 0 11-4.413 0c0-1.217.985-2.206 2.206-2.206z" id="Combined-Shape-Copy"/></g></g></svg>