<svg width="20" height="29" xmlns="http://www.w3.org/2000/svg"><g id="Home" stroke="none" stroke-width="1" fill="none" fill-rule="evenodd"><g id="New-Approach---Wide" transform="translate(-357 -6420)" fill="#26AC77"><g id="Group-44" transform="translate(0 5954)"><g id="Group-34" transform="translate(353 124)"><g id="Group-24" transform="translate(0 288)"><g id="Group-40" transform="translate(4 52)"><path d="M10 2C4.455 2 0 6.44 0 11.97 0 17.496 10 31 10 31s10-13.503 10-19.03C20 6.44 15.545 2 10 2zm0 14.5c-2.545 0-4.546-1.994-4.546-4.533 0-2.536 2-4.531 4.546-4.531 2.545 0 4.546 1.993 4.546 4.531 0 2.539-2.001 4.532-4.546 4.532z" id="Fill-1"/></g></g></g></g></g></g></svg>