<svg width="184" height="28" xmlns="http://www.w3.org/2000/svg" xmlns:xlink="http://www.w3.org/1999/xlink"><defs><path id="path-1" d="M0 26.783h183.958V.648H0z"/></defs><g id="Home" stroke="none" stroke-width="1" fill="none" fill-rule="evenodd"><g id="New-Approach---Wide" transform="translate(-231 -65)"><g id="Group-13" transform="translate(231 65)"><path id="Fill-1" fill="#00D378" d="M25.664 1.218L19.356 9.6l-2.388-3.282h-5.403l5.357 7.333 2.192 3.042 2.19-3.042 9.209-12.433z"/><path id="Fill-2" fill="#FFF" d="M32.316 1.233l-13.201 18.08L8.622 4.886h7.082l-2.74-3.652H0l16.428 22.39 2.687 3.73L38.21 1.232z"/><path id="Fill-3" fill="#FFF" d="M45.043 1.355v25.443h19.479v-4.504H50.278v-5.965h11.078v-4.383H50.278V5.737H63.67V1.355z"/><g id="Group-12" transform="translate(0 .57)"><path d="M91.182 9.063c0 3.284-3.431 3.774-5.478 3.774h-4.626V5.29h4.991c1.91 0 5.113.491 5.113 3.774m5.357 0c0-5.183-3.639-8.156-9.983-8.156h-10.59V26.23H81.2v-9.01h3.718l6.939 9.01h6.293l-7.492-9.615c3.802-1.09 5.881-3.741 5.881-7.55" id="Fill-4" fill="#FFF"/><mask id="mask-2" fill="#fff"><use xlink:href="#path-1"/></mask><path id="Fill-6" fill="#FFF" mask="url(#mask-2)" d="M108.713 26.107h5.235V.785h-5.235z"/><path id="Fill-8" fill="#FFF" mask="url(#mask-2)" d="M126.974 26.229h5.234V16.124h12.053v-4.382h-12.053V5.168h14.122V.785h-19.356z"/><path id="Fill-9" fill="#FFF" mask="url(#mask-2)" d="M173.036.785l-6.506 9.525-6.737-9.525h-5.998l10.066 14.194v11.25h5.236v-11.25L179.16.785z"/><path id="Fill-10" fill="#FFF" mask="url(#mask-2)" d="M183.25 23.588l-.852 2.03-.853-2.03h-.728v2.671h.458v-2.242h.014l.943 2.242h.311l.943-2.242h.014v2.242h.458v-2.67z"/><path id="Fill-11" fill="#FFF" mask="url(#mask-2)" d="M177.983 24.016h.9v2.244h.458v-2.244h.9v-.428h-2.258z"/></g></g></g></g></svg>