<svg width="20" height="22" xmlns="http://www.w3.org/2000/svg"><g id="Home" stroke="none" stroke-width="1" fill="none" fill-rule="evenodd"><g id="New-Approach---Wide" transform="translate(-353 -6372)" fill="#26AC77"><g id="Group-44" transform="translate(0 5954)"><g id="Group-34" transform="translate(353 124)"><g id="Group-39" transform="translate(0 288)"><path d="M19.563 23.138l-.12-.245c-.337-.807-4.48-2.03-4.816-2.054l-.265.024c-.506.098-1.059.563-2.142 1.517a.645.645 0 01-.77.098c-1.42-.808-3.155-2.422-4.021-3.4-.939-1.053-2.07-2.789-2.6-4.184-.096-.27 0-.563.192-.76 1.229-1.125 1.758-1.663 1.806-2.25.025-.342-.698-4.673-1.444-5.089l-.217-.147c-.481-.318-1.204-.782-1.998-.611a2.19 2.19 0 00-.554.22C2.084 6.6.759 7.529.157 8.727c-.36.76-.53 7.633 4.527 13.432 5.008 5.75 11.195 5.994 12.11 5.798h.025l.072-.025c1.252-.464 2.312-1.664 2.72-2.177.746-.905.24-2.006-.048-2.617z" id="Fill-1"/></g></g></g></g></g></svg>