<svg version="1.0" xmlns="http://www.w3.org/2000/svg" width="666.667" height="666.667" viewBox="0 0 500 500"><path d="M229.8.5c-.2.1-3.2.5-6.8.9-3.6.3-7.6.8-9 1-1.4.3-4.3.7-6.5 1.1-2.2.3-6.8 1.2-10.2 2-3.5.8-7.5 1.7-9.1 2-5.5 1-27.7 8.6-37.5 12.9-40.4 17.7-74.5 44.5-100.3 79.1-4.1 5.5-7.8 10.4-8.2 11-.8 1.1-9.5 15.6-12.9 21.5-10.9 19.2-22.6 53.5-25.9 76-.3 1.9-.7 4.6-1 6-2.6 14.8-2.6 57.5 0 72 .3 1.4.7 4.2 1 6.3 1.9 12.7 8.7 36.7 14.2 50.4 26.7 66.2 79.8 117.7 146.8 142.4 7.6 2.9 22.5 7.3 27.6 8.3 1.4.2 4.5.9 7 1.5 6.5 1.5 13.1 2.5 26.5 4.1 7 .9 48.7.6 53.5-.3 1.4-.3 4.7-.8 7.3-1.2 2.7-.4 5.9-.8 7-1.1 1.2-.2 3.5-.7 5-.9 21.9-4 53.9-15.6 71-25.7 2.6-1.5 5-2.8 5.3-2.8.3 0 5.7-3.4 12-7.5 55.4-36.6 93.2-91.1 107.5-155 1.1-5 2.2-10.8 2.5-13 .3-2.2.7-4.5.9-5.2 1.2-3.6 2-18.1 2-35.8 0-20.4-.6-28.8-3-43-2.7-15.9-9.1-38.5-15.1-52.8-17.5-41.8-45.9-78.4-81.7-105-25.3-18.9-57.3-34.5-84.6-41.3-16.5-4.1-20-4.7-36-6.8-8-1.1-48.3-2-49.3-1.1z"/></svg>