<svg width="1808" height="1471" xmlns="http://www.w3.org/2000/svg" xmlns:xlink="http://www.w3.org/1999/xlink"><defs><path id="path-1" d="M.5.599h1809v1470H.5z"/></defs><g id="Home" stroke="none" stroke-width="1" fill="none" fill-rule="evenodd"><g id="Home---2" transform="translate(0 -794)"><g id="Path-2-Copy-+-Path-2-Copy-2-+-Path-2-Copy-3-+-Path-3-Mask" transform="translate(-1 794)"><mask id="mask-2" fill="#fff"><use xlink:href="#path-1"/></mask><use id="Mask" fill="#F8FBFD" fill-rule="nonzero" xlink:href="#path-1"/><g mask="url(#mask-2)" stroke="#D9E0EF" stroke-opacity=".815"><g transform="translate(-262 -59)"><path d="M141.558 453.242C86.95 925.858 253.57 1137.57 641.416 1088.375c581.77-73.79 1463.949-570.476 1853.967 33.458" id="Path-2-Copy"/><path d="M228.364 756.559c-47.328 472.615 97.08 684.326 433.225 635.132 504.217-73.79 1268.797-570.476 1606.824 33.458" id="Path-2-Copy-2"/><path d="M219.602 142.473c166.505 138.312 405.515 176.191 717.03 113.637C1403.904 162.278 1938.639-87.014 2547.06 31.788" id="Path-2-Copy-3"/><path d="M.738 423.25c107.283 282.645 372.019 376.86 794.209 282.645 633.285-141.323 951.242-511.064 1334.636-187.744" id="Path-3"/></g></g></g></g></g></svg>