<svg width="32" height="32" xmlns="http://www.w3.org/2000/svg"><g id="Home" stroke="none" stroke-width="1" fill="none" fill-rule="evenodd"><g id="New-Approach---Wide" transform="translate(-292 -628)" fill="#FFF" fill-rule="nonzero"><g id="Group-15" transform="translate(273 612)"><path d="M35 16c8.837 0 16 7.163 16 16s-7.163 16-16 16-16-7.163-16-16 7.163-16 16-16zm0 1c-8.284 0-15 6.716-15 15 0 8.284 6.716 15 15 15 8.284 0 15-6.716 15-15 0-8.284-6.716-15-15-15zm0 8a7 7 0 110 14 7 7 0 010-14z" id="Combined-Shape"/></g></g></g></svg>