<?xml version="1.0" encoding="UTF-8"?>
<svg width="35px" height="35px" viewBox="0 0 35 35" version="1.1" xmlns="http://www.w3.org/2000/svg" xmlns:xlink="http://www.w3.org/1999/xlink">
    <title>Combined Shape</title>
    <g id="Home" stroke="none" stroke-width="1" fill="none" fill-rule="evenodd">
        <g id="New-Approach---Wide" transform="translate(-349.000000, -5266.000000)" fill="#EF6351" fill-rule="nonzero">
            <g id="Group-28" transform="translate(0.000000, 5266.000000)">
                <path d="M366.5,0 C376.164983,0 384,7.83501688 384,17.5 C384,27.1649831 376.164983,35 366.5,35 C356.835017,35 349,27.1649831 349,17.5 C349,7.83501688 356.835017,0 366.5,0 Z M366.5,1.09375 C357.439078,1.09375 350.09375,8.43907832 350.09375,17.5 C350.09375,26.5609217 357.439078,33.90625 366.5,33.90625 C375.560922,33.90625 382.90625,26.5609217 382.90625,17.5 C382.90625,8.43907832 375.560922,1.09375 366.5,1.09375 Z M366.5,9.84375 C370.72843,9.84375 374.15625,13.2715699 374.15625,17.5 C374.15625,21.7284301 370.72843,25.15625 366.5,25.15625 C362.27157,25.15625 358.84375,21.7284301 358.84375,17.5 C358.84375,13.2715699 362.27157,9.84375 366.5,9.84375 Z" id="Combined-Shape"></path>
            </g>
        </g>
    </g>
</svg>