<?xml version="1.0" encoding="UTF-8"?>
<svg width="506px" height="506px" viewBox="0 0 506 506" version="1.1" xmlns="http://www.w3.org/2000/svg" xmlns:xlink="http://www.w3.org/1999/xlink">
    <title>Combined Shape Copy</title>
    <g id="Page-1" stroke="none" stroke-width="1" fill="none" fill-rule="evenodd">
        <g id="Landing-page" transform="translate(-686.000000, -1465.000000)" fill="#EF6351">
            <path d="M688.209909,1966.58375 C689.430893,1966.58375 690.416249,1967.57268 690.416249,1968.79366 C690.416249,1970.01107 689.430893,1971 688.209909,1971 C686.988926,1971 686,1970.01107 686,1968.79366 C686,1967.57268 686.988926,1966.58375 688.209909,1966.58375 Z M733.809373,1966.58375 C735.026787,1966.58375 736.015713,1967.57268 736.015713,1968.79366 C736.015713,1970.01107 735.026787,1971 733.809373,1971 C732.58839,1971 731.599464,1970.01107 731.599464,1968.79366 C731.599464,1967.57268 732.58839,1966.58375 733.809373,1966.58375 Z M779.408838,1966.58375 C780.626251,1966.58375 781.615177,1967.57268 781.615177,1968.79366 C781.615177,1970.01107 780.626251,1971 779.408838,1971 C778.187854,1971 777.198928,1970.01107 777.198928,1968.79366 C777.198928,1967.57268 778.187854,1966.58375 779.408838,1966.58375 Z M825.004374,1966.58375 C826.225358,1966.58375 827.214284,1967.57268 827.214284,1968.79366 C827.214284,1970.01107 826.225358,1971 825.004374,1971 C823.786961,1971 822.798035,1970.01107 822.798035,1968.79366 C822.798035,1967.57268 823.786961,1966.58375 825.004374,1966.58375 Z M870.603839,1966.58375 C871.824822,1966.58375 872.813748,1967.57268 872.813748,1968.79366 C872.813748,1970.01107 871.824822,1971 870.603839,1971 C869.382855,1971 868.397499,1970.01107 868.397499,1968.79366 C868.397499,1967.57268 869.382855,1966.58375 870.603839,1966.58375 Z M916.203303,1966.58375 C917.424286,1966.58375 918.409642,1967.57268 918.409642,1968.79366 C918.409642,1970.01107 917.424286,1971 916.203303,1971 C914.982319,1971 913.996963,1970.01107 913.996963,1968.79366 C913.996963,1967.57268 914.982319,1966.58375 916.203303,1966.58375 Z M961.80241,1966.58375 C963.023394,1966.58375 964.008749,1967.57268 964.008749,1968.79366 C964.008749,1970.01107 963.023394,1971 961.80241,1971 C960.581426,1971 959.5925,1970.01107 959.5925,1968.79366 C959.5925,1967.57268 960.581426,1966.58375 961.80241,1966.58375 Z M1007.40187,1966.58375 C1008.61929,1966.58375 1009.60821,1967.57268 1009.60821,1968.79366 C1009.60821,1970.01107 1008.61929,1971 1007.40187,1971 C1006.18089,1971 1005.19196,1970.01107 1005.19196,1968.79366 C1005.19196,1967.57268 1006.18089,1966.58375 1007.40187,1966.58375 Z M1052.99741,1966.58375 C1054.21839,1966.58375 1055.20732,1967.57268 1055.20732,1968.79366 C1055.20732,1970.01107 1054.21839,1971 1052.99741,1971 C1051.78,1971 1050.79107,1970.01107 1050.79107,1968.79366 C1050.79107,1967.57268 1051.78,1966.58375 1052.99741,1966.58375 Z M1098.59687,1966.58375 C1099.81786,1966.58375 1100.80678,1967.57268 1100.80678,1968.79366 C1100.80678,1970.01107 1099.81786,1971 1098.59687,1971 C1097.37946,1971 1096.39054,1970.01107 1096.39054,1968.79366 C1096.39054,1967.57268 1097.37946,1966.58375 1098.59687,1966.58375 Z M1144.19634,1966.58375 C1145.41732,1966.58375 1146.40625,1967.57268 1146.40625,1968.79366 C1146.40625,1970.01107 1145.41732,1971 1144.19634,1971 C1142.97535,1971 1141.99,1970.01107 1141.99,1968.79366 C1141.99,1967.57268 1142.97535,1966.58375 1144.19634,1966.58375 Z M1189.79545,1966.58375 C1191.01643,1966.58375 1192.00179,1967.57268 1192.00179,1968.79366 C1192.00179,1970.01107 1191.01643,1971 1189.79545,1971 C1188.57446,1971 1187.58911,1970.01107 1187.58911,1968.79366 C1187.58911,1967.57268 1188.57446,1966.58375 1189.79545,1966.58375 Z M688.209909,1920.98464 C689.430893,1920.98464 690.416249,1921.97357 690.416249,1923.19455 C690.416249,1924.41554 689.430893,1925.40446 688.209909,1925.40446 C686.988926,1925.40446 686,1924.41554 686,1923.19455 C686,1921.97357 686.988926,1920.98464 688.209909,1920.98464 Z M733.809373,1920.98464 C735.026787,1920.98464 736.015713,1921.97357 736.015713,1923.19455 C736.015713,1924.41554 735.026787,1925.40446 733.809373,1925.40446 C732.58839,1925.40446 731.599464,1924.41554 731.599464,1923.19455 C731.599464,1921.97357 732.58839,1920.98464 733.809373,1920.98464 Z M779.408838,1920.98464 C780.626251,1920.98464 781.615177,1921.97357 781.615177,1923.19455 C781.615177,1924.41554 780.626251,1925.40446 779.408838,1925.40446 C778.187854,1925.40446 777.198928,1924.41554 777.198928,1923.19455 C777.198928,1921.97357 778.187854,1920.98464 779.408838,1920.98464 Z M825.004374,1920.98464 C826.225358,1920.98464 827.214284,1921.97357 827.214284,1923.19455 C827.214284,1924.41554 826.225358,1925.40446 825.004374,1925.40446 C823.786961,1925.40446 822.798035,1924.41554 822.798035,1923.19455 C822.798035,1921.97357 823.786961,1920.98464 825.004374,1920.98464 Z M870.603839,1920.98464 C871.824822,1920.98464 872.813748,1921.97357 872.813748,1923.19455 C872.813748,1924.41554 871.824822,1925.40446 870.603839,1925.40446 C869.382855,1925.40446 868.397499,1924.41554 868.397499,1923.19455 C868.397499,1921.97357 869.382855,1920.98464 870.603839,1920.98464 Z M916.203303,1920.98464 C917.424286,1920.98464 918.409642,1921.97357 918.409642,1923.19455 C918.409642,1924.41554 917.424286,1925.40446 916.203303,1925.40446 C914.982319,1925.40446 913.996963,1924.41554 913.996963,1923.19455 C913.996963,1921.97357 914.982319,1920.98464 916.203303,1920.98464 Z M961.80241,1920.98464 C963.023394,1920.98464 964.008749,1921.97357 964.008749,1923.19455 C964.008749,1924.41554 963.023394,1925.40446 961.80241,1925.40446 C960.581426,1925.40446 959.5925,1924.41554 959.5925,1923.19455 C959.5925,1921.97357 960.581426,1920.98464 961.80241,1920.98464 Z M1007.40187,1920.98464 C1008.61929,1920.98464 1009.60821,1921.97357 1009.60821,1923.19455 C1009.60821,1924.41554 1008.61929,1925.40446 1007.40187,1925.40446 C1006.18089,1925.40446 1005.19196,1924.41554 1005.19196,1923.19455 C1005.19196,1921.97357 1006.18089,1920.98464 1007.40187,1920.98464 Z M1052.99741,1920.98464 C1054.21839,1920.98464 1055.20732,1921.97357 1055.20732,1923.19455 C1055.20732,1924.41554 1054.21839,1925.40446 1052.99741,1925.40446 C1051.78,1925.40446 1050.79107,1924.41554 1050.79107,1923.19455 C1050.79107,1921.97357 1051.78,1920.98464 1052.99741,1920.98464 Z M1098.59687,1920.98464 C1099.81786,1920.98464 1100.80678,1921.97357 1100.80678,1923.19455 C1100.80678,1924.41554 1099.81786,1925.40446 1098.59687,1925.40446 C1097.37946,1925.40446 1096.39054,1924.41554 1096.39054,1923.19455 C1096.39054,1921.97357 1097.37946,1920.98464 1098.59687,1920.98464 Z M1144.19634,1920.98464 C1145.41732,1920.98464 1146.40625,1921.97357 1146.40625,1923.19455 C1146.40625,1924.41554 1145.41732,1925.40446 1144.19634,1925.40446 C1142.97535,1925.40446 1141.99,1924.41554 1141.99,1923.19455 C1141.99,1921.97357 1142.97535,1920.98464 1144.19634,1920.98464 Z M1189.79545,1920.98464 C1191.01643,1920.98464 1192.00179,1921.97357 1192.00179,1923.19455 C1192.00179,1924.41554 1191.01643,1925.40446 1189.79545,1925.40446 C1188.57446,1925.40446 1187.58911,1924.41554 1187.58911,1923.19455 C1187.58911,1921.97357 1188.57446,1920.98464 1189.79545,1920.98464 Z M690.416249,1875.38875 L690.416249,1879.805 L686.000714,1879.805 L686.000714,1875.38875 L690.416249,1875.38875 Z M733.809373,1875.38875 C735.026787,1875.38875 736.015713,1876.37768 736.015713,1877.59509 C736.015713,1878.81607 735.026787,1879.805 733.809373,1879.805 C732.58839,1879.805 731.599464,1878.81607 731.599464,1877.59509 C731.599464,1876.37768 732.58839,1875.38875 733.809373,1875.38875 Z M779.408838,1875.38875 C780.626251,1875.38875 781.615177,1876.37768 781.615177,1877.59509 C781.615177,1878.81607 780.626251,1879.805 779.408838,1879.805 C778.187854,1879.805 777.198928,1878.81607 777.198928,1877.59509 C777.198928,1876.37768 778.187854,1875.38875 779.408838,1875.38875 Z M825.004374,1875.38875 C826.225358,1875.38875 827.214284,1876.37768 827.214284,1877.59509 C827.214284,1878.81607 826.225358,1879.805 825.004374,1879.805 C823.786961,1879.805 822.798035,1878.81607 822.798035,1877.59509 C822.798035,1876.37768 823.786961,1875.38875 825.004374,1875.38875 Z M870.603839,1875.38875 C871.824822,1875.38875 872.813748,1876.37768 872.813748,1877.59509 C872.813748,1878.81607 871.824822,1879.805 870.603839,1879.805 C869.382855,1879.805 868.397499,1878.81607 868.397499,1877.59509 C868.397499,1876.37768 869.382855,1875.38875 870.603839,1875.38875 Z M916.203303,1875.38875 C917.424286,1875.38875 918.409642,1876.37768 918.409642,1877.59509 C918.409642,1878.81607 917.424286,1879.805 916.203303,1879.805 C914.982319,1879.805 913.996963,1878.81607 913.996963,1877.59509 C913.996963,1876.37768 914.982319,1875.38875 916.203303,1875.38875 Z M961.80241,1875.38875 C963.023394,1875.38875 964.008749,1876.37768 964.008749,1877.59509 C964.008749,1878.81607 963.023394,1879.805 961.80241,1879.805 C960.581426,1879.805 959.5925,1878.81607 959.5925,1877.59509 C959.5925,1876.37768 960.581426,1875.38875 961.80241,1875.38875 Z M1007.40187,1875.38875 C1008.61929,1875.38875 1009.60821,1876.37768 1009.60821,1877.59509 C1009.60821,1878.81607 1008.61929,1879.805 1007.40187,1879.805 C1006.18089,1879.805 1005.19196,1878.81607 1005.19196,1877.59509 C1005.19196,1876.37768 1006.18089,1875.38875 1007.40187,1875.38875 Z M1052.99741,1875.38875 C1054.21839,1875.38875 1055.20732,1876.37768 1055.20732,1877.59509 C1055.20732,1878.81607 1054.21839,1879.805 1052.99741,1879.805 C1051.78,1879.805 1050.79107,1878.81607 1050.79107,1877.59509 C1050.79107,1876.37768 1051.78,1875.38875 1052.99741,1875.38875 Z M1098.59687,1875.38875 C1099.81786,1875.38875 1100.80678,1876.37768 1100.80678,1877.59509 C1100.80678,1878.81607 1099.81786,1879.805 1098.59687,1879.805 C1097.37946,1879.805 1096.39054,1878.81607 1096.39054,1877.59509 C1096.39054,1876.37768 1097.37946,1875.38875 1098.59687,1875.38875 Z M1144.19634,1875.38875 C1145.41732,1875.38875 1146.40625,1876.37768 1146.40625,1877.59509 C1146.40625,1878.81607 1145.41732,1879.805 1144.19634,1879.805 C1142.97535,1879.805 1141.99,1878.81607 1141.99,1877.59509 C1141.99,1876.37768 1142.97535,1875.38875 1144.19634,1875.38875 Z M1189.79545,1875.38875 C1191.01643,1875.38875 1192.00179,1876.37768 1192.00179,1877.59509 C1192.00179,1878.81607 1191.01643,1879.805 1189.79545,1879.805 C1188.57446,1879.805 1187.58911,1878.81607 1187.58911,1877.59509 C1187.58911,1876.37768 1188.57446,1875.38875 1189.79545,1875.38875 Z M870.603839,1829.7875 C871.824822,1829.7875 872.813748,1830.77643 872.813748,1831.99741 C872.813748,1833.21482 871.824822,1834.20375 870.603839,1834.20375 C869.382855,1834.20375 868.397499,1833.21482 868.397499,1831.99741 C868.397499,1830.77643 869.382855,1829.7875 870.603839,1829.7875 Z M916.203303,1829.7875 C917.424286,1829.7875 918.409642,1830.77643 918.409642,1831.99741 C918.409642,1833.21482 917.424286,1834.20375 916.203303,1834.20375 C914.982319,1834.20375 913.996963,1833.21482 913.996963,1831.99741 C913.996963,1830.77643 914.982319,1829.7875 916.203303,1829.7875 Z M1189.79545,1829.7875 C1191.01643,1829.7875 1192.00179,1830.77643 1192.00179,1831.99741 C1192.00179,1833.21482 1191.01643,1834.20375 1189.79545,1834.20375 C1188.57446,1834.20375 1187.58911,1833.21482 1187.58911,1831.99741 C1187.58911,1830.77643 1188.57446,1829.7875 1189.79545,1829.7875 Z M688.209909,1829.7875 C689.430893,1829.7875 690.416249,1830.77643 690.416249,1831.99741 C690.416249,1833.21482 689.430893,1834.20375 688.209909,1834.20375 C686.988926,1834.20375 686,1833.21482 686,1831.99741 C686,1830.77643 686.988926,1829.7875 688.209909,1829.7875 Z M733.809373,1829.7875 C735.026787,1829.7875 736.015713,1830.77643 736.015713,1831.99741 C736.015713,1833.21482 735.026787,1834.20375 733.809373,1834.20375 C732.58839,1834.20375 731.599464,1833.21482 731.599464,1831.99741 C731.599464,1830.77643 732.58839,1829.7875 733.809373,1829.7875 Z M779.408838,1829.7875 C780.626251,1829.7875 781.615177,1830.77643 781.615177,1831.99741 C781.615177,1833.21482 780.626251,1834.20375 779.408838,1834.20375 C778.187854,1834.20375 777.198928,1833.21482 777.198928,1831.99741 C777.198928,1830.77643 778.187854,1829.7875 779.408838,1829.7875 Z M825.004374,1829.7875 C826.225358,1829.7875 827.214284,1830.77643 827.214284,1831.99741 C827.214284,1833.21482 826.225358,1834.20375 825.004374,1834.20375 C823.786961,1834.20375 822.798035,1833.21482 822.798035,1831.99741 C822.798035,1830.77643 823.786961,1829.7875 825.004374,1829.7875 Z M1052.99741,1829.7875 C1054.21839,1829.7875 1055.20732,1830.77643 1055.20732,1831.99741 C1055.20732,1833.21482 1054.21839,1834.20375 1052.99741,1834.20375 C1051.78,1834.20375 1050.79107,1833.21482 1050.79107,1831.99741 C1050.79107,1830.77643 1051.78,1829.7875 1052.99741,1829.7875 Z M1098.59687,1829.7875 C1099.81786,1829.7875 1100.80678,1830.77643 1100.80678,1831.99741 C1100.80678,1833.21482 1099.81786,1834.20375 1098.59687,1834.20375 C1097.37946,1834.20375 1096.39054,1833.21482 1096.39054,1831.99741 C1096.39054,1830.77643 1097.37946,1829.7875 1098.59687,1829.7875 Z M1144.19634,1829.7875 C1145.41732,1829.7875 1146.40625,1830.77643 1146.40625,1831.99741 C1146.40625,1833.21482 1145.41732,1834.20375 1144.19634,1834.20375 C1142.97535,1834.20375 1141.99,1833.21482 1141.99,1831.99741 C1141.99,1830.77643 1142.97535,1829.7875 1144.19634,1829.7875 Z M961.80241,1829.7875 C963.023394,1829.7875 964.008749,1830.77643 964.008749,1831.99741 C964.008749,1833.21482 963.023394,1834.20375 961.80241,1834.20375 C960.581426,1834.20375 959.5925,1833.21482 959.5925,1831.99741 C959.5925,1830.77643 960.581426,1829.7875 961.80241,1829.7875 Z M1007.40187,1829.7875 C1008.61929,1829.7875 1009.60821,1830.77643 1009.60821,1831.99741 C1009.60821,1833.21482 1008.61929,1834.20375 1007.40187,1834.20375 C1006.18089,1834.20375 1005.19196,1833.21482 1005.19196,1831.99741 C1005.19196,1830.77643 1006.18089,1829.7875 1007.40187,1829.7875 Z M733.809373,1784.18839 C735.026787,1784.18839 736.015713,1785.17732 736.015713,1786.3983 C736.015713,1787.61929 735.026787,1788.60821 733.809373,1788.60821 C732.58839,1788.60821 731.599464,1787.61929 731.599464,1786.3983 C731.599464,1785.17732 732.58839,1784.18839 733.809373,1784.18839 Z M779.408838,1784.18839 C780.626251,1784.18839 781.615177,1785.17732 781.615177,1786.3983 C781.615177,1787.61929 780.626251,1788.60821 779.408838,1788.60821 C778.187854,1788.60821 777.198928,1787.61929 777.198928,1786.3983 C777.198928,1785.17732 778.187854,1784.18839 779.408838,1784.18839 Z M825.004374,1784.18839 C826.225358,1784.18839 827.214284,1785.17732 827.214284,1786.3983 C827.214284,1787.61929 826.225358,1788.60821 825.004374,1788.60821 C823.786961,1788.60821 822.798035,1787.61929 822.798035,1786.3983 C822.798035,1785.17732 823.786961,1784.18839 825.004374,1784.18839 Z M870.603839,1784.18839 C871.824822,1784.18839 872.813748,1785.17732 872.813748,1786.3983 C872.813748,1787.61929 871.824822,1788.60821 870.603839,1788.60821 C869.382855,1788.60821 868.397499,1787.61929 868.397499,1786.3983 C868.397499,1785.17732 869.382855,1784.18839 870.603839,1784.18839 Z M916.203303,1784.18839 C917.424286,1784.18839 918.409642,1785.17732 918.409642,1786.3983 C918.409642,1787.61929 917.424286,1788.60821 916.203303,1788.60821 C914.982319,1788.60821 913.996963,1787.61929 913.996963,1786.3983 C913.996963,1785.17732 914.982319,1784.18839 916.203303,1784.18839 Z M961.80241,1784.18839 C963.023394,1784.18839 964.008749,1785.17732 964.008749,1786.3983 C964.008749,1787.61929 963.023394,1788.60821 961.80241,1788.60821 C960.581426,1788.60821 959.5925,1787.61929 959.5925,1786.3983 C959.5925,1785.17732 960.581426,1784.18839 961.80241,1784.18839 Z M1007.40187,1784.18839 C1008.61929,1784.18839 1009.60821,1785.17732 1009.60821,1786.3983 C1009.60821,1787.61929 1008.61929,1788.60821 1007.40187,1788.60821 C1006.18089,1788.60821 1005.19196,1787.61929 1005.19196,1786.3983 C1005.19196,1785.17732 1006.18089,1784.18839 1007.40187,1784.18839 Z M1052.99741,1784.18839 C1054.21839,1784.18839 1055.20732,1785.17732 1055.20732,1786.3983 C1055.20732,1787.61929 1054.21839,1788.60821 1052.99741,1788.60821 C1051.78,1788.60821 1050.79107,1787.61929 1050.79107,1786.3983 C1050.79107,1785.17732 1051.78,1784.18839 1052.99741,1784.18839 Z M1098.59687,1784.18839 C1099.81786,1784.18839 1100.80678,1785.17732 1100.80678,1786.3983 C1100.80678,1787.61929 1099.81786,1788.60821 1098.59687,1788.60821 C1097.37946,1788.60821 1096.39054,1787.61929 1096.39054,1786.3983 C1096.39054,1785.17732 1097.37946,1784.18839 1098.59687,1784.18839 Z M1144.19634,1784.18839 C1145.41732,1784.18839 1146.40625,1785.17732 1146.40625,1786.3983 C1146.40625,1787.61929 1145.41732,1788.60821 1144.19634,1788.60821 C1142.97535,1788.60821 1141.99,1787.61929 1141.99,1786.3983 C1141.99,1785.17732 1142.97535,1784.18839 1144.19634,1784.18839 Z M1189.79545,1784.18839 C1191.01643,1784.18839 1192.00179,1785.17732 1192.00179,1786.3983 C1192.00179,1787.61929 1191.01643,1788.60821 1189.79545,1788.60821 C1188.57446,1788.60821 1187.58911,1787.61929 1187.58911,1786.3983 C1187.58911,1785.17732 1188.57446,1784.18839 1189.79545,1784.18839 Z M688.209909,1784.18839 C689.430893,1784.18839 690.416249,1785.17732 690.416249,1786.3983 C690.416249,1787.61929 689.430893,1788.60821 688.209909,1788.60821 C686.988926,1788.60821 686,1787.61929 686,1786.3983 C686,1785.17732 686.988926,1784.18839 688.209909,1784.18839 Z M825.004374,1738.5925 C826.225358,1738.5925 827.214284,1739.58143 827.214284,1740.79884 C827.214284,1742.01982 826.225358,1743.00875 825.004374,1743.00875 C823.786961,1743.00875 822.798035,1742.01982 822.798035,1740.79884 C822.798035,1739.58143 823.786961,1738.5925 825.004374,1738.5925 Z M961.80241,1738.5925 C963.023394,1738.5925 964.008749,1739.58143 964.008749,1740.79884 C964.008749,1742.01982 963.023394,1743.00875 961.80241,1743.00875 C960.581426,1743.00875 959.5925,1742.01982 959.5925,1740.79884 C959.5925,1739.58143 960.581426,1738.5925 961.80241,1738.5925 Z M688.209909,1738.5925 C689.430893,1738.5925 690.416249,1739.58143 690.416249,1740.79884 C690.416249,1742.01982 689.430893,1743.00875 688.209909,1743.00875 C686.988926,1743.00875 686,1742.01982 686,1740.79884 C686,1739.58143 686.988926,1738.5925 688.209909,1738.5925 Z M733.809373,1738.5925 C735.026787,1738.5925 736.015713,1739.58143 736.015713,1740.79884 C736.015713,1742.01982 735.026787,1743.00875 733.809373,1743.00875 C732.58839,1743.00875 731.599464,1742.01982 731.599464,1740.79884 C731.599464,1739.58143 732.58839,1738.5925 733.809373,1738.5925 Z M779.408838,1738.5925 C780.626251,1738.5925 781.615177,1739.58143 781.615177,1740.79884 C781.615177,1742.01982 780.626251,1743.00875 779.408838,1743.00875 C778.187854,1743.00875 777.198928,1742.01982 777.198928,1740.79884 C777.198928,1739.58143 778.187854,1738.5925 779.408838,1738.5925 Z M1007.40187,1738.5925 C1008.61929,1738.5925 1009.60821,1739.58143 1009.60821,1740.79884 C1009.60821,1742.01982 1008.61929,1743.00875 1007.40187,1743.00875 C1006.18089,1743.00875 1005.19196,1742.01982 1005.19196,1740.79884 C1005.19196,1739.58143 1006.18089,1738.5925 1007.40187,1738.5925 Z M1052.99741,1738.5925 C1054.21839,1738.5925 1055.20732,1739.58143 1055.20732,1740.79884 C1055.20732,1742.01982 1054.21839,1743.00875 1052.99741,1743.00875 C1051.78,1743.00875 1050.79107,1742.01982 1050.79107,1740.79884 C1050.79107,1739.58143 1051.78,1738.5925 1052.99741,1738.5925 Z M1098.59687,1738.5925 C1099.81786,1738.5925 1100.80678,1739.58143 1100.80678,1740.79884 C1100.80678,1742.01982 1099.81786,1743.00875 1098.59687,1743.00875 C1097.37946,1743.00875 1096.39054,1742.01982 1096.39054,1740.79884 C1096.39054,1739.58143 1097.37946,1738.5925 1098.59687,1738.5925 Z M1144.19634,1738.5925 C1145.41732,1738.5925 1146.40625,1739.58143 1146.40625,1740.79884 C1146.40625,1742.01982 1145.41732,1743.00875 1144.19634,1743.00875 C1142.97535,1743.00875 1141.99,1742.01982 1141.99,1740.79884 C1141.99,1739.58143 1142.97535,1738.5925 1144.19634,1738.5925 Z M1189.79545,1738.5925 C1191.01643,1738.5925 1192.00179,1739.58143 1192.00179,1740.79884 C1192.00179,1742.01982 1191.01643,1743.00875 1189.79545,1743.00875 C1188.57446,1743.00875 1187.58911,1742.01982 1187.58911,1740.79884 C1187.58911,1739.58143 1188.57446,1738.5925 1189.79545,1738.5925 Z M870.603839,1738.5925 C871.824822,1738.5925 872.813748,1739.58143 872.813748,1740.79884 C872.813748,1742.01982 871.824822,1743.00875 870.603839,1743.00875 C869.382855,1743.00875 868.397499,1742.01982 868.397499,1740.79884 C868.397499,1739.58143 869.382855,1738.5925 870.603839,1738.5925 Z M916.203303,1738.5925 C917.424286,1738.5925 918.409642,1739.58143 918.409642,1740.79884 C918.409642,1742.01982 917.424286,1743.00875 916.203303,1743.00875 C914.982319,1743.00875 913.996963,1742.01982 913.996963,1740.79884 C913.996963,1739.58143 914.982319,1738.5925 916.203303,1738.5925 Z M870.603839,1692.99125 C871.824822,1692.99125 872.813748,1693.98018 872.813748,1695.20116 C872.813748,1696.41857 871.824822,1697.4075 870.603839,1697.4075 C869.382855,1697.4075 868.397499,1696.41857 868.397499,1695.20116 C868.397499,1693.98018 869.382855,1692.99125 870.603839,1692.99125 Z M961.80241,1692.99125 C963.023394,1692.99125 964.008749,1693.98018 964.008749,1695.20116 C964.008749,1696.41857 963.023394,1697.4075 961.80241,1697.4075 C960.581426,1697.4075 959.5925,1696.41857 959.5925,1695.20116 C959.5925,1693.98018 960.581426,1692.99125 961.80241,1692.99125 Z M916.203303,1692.99125 C917.424286,1692.99125 918.409642,1693.98018 918.409642,1695.20116 C918.409642,1696.41857 917.424286,1697.4075 916.203303,1697.4075 C914.982319,1697.4075 913.996963,1696.41857 913.996963,1695.20116 C913.996963,1693.98018 914.982319,1692.99125 916.203303,1692.99125 Z M825.004374,1692.99125 C826.225358,1692.99125 827.214284,1693.98018 827.214284,1695.20116 C827.214284,1696.41857 826.225358,1697.4075 825.004374,1697.4075 C823.786961,1697.4075 822.798035,1696.41857 822.798035,1695.20116 C822.798035,1693.98018 823.786961,1692.99125 825.004374,1692.99125 Z M779.408838,1692.99125 C780.626251,1692.99125 781.615177,1693.98018 781.615177,1695.20116 C781.615177,1696.41857 780.626251,1697.4075 779.408838,1697.4075 C778.187854,1697.4075 777.198928,1696.41857 777.198928,1695.20116 C777.198928,1693.98018 778.187854,1692.99125 779.408838,1692.99125 Z M1052.99741,1692.99125 C1054.21839,1692.99125 1055.20732,1693.98018 1055.20732,1695.20116 C1055.20732,1696.41857 1054.21839,1697.4075 1052.99741,1697.4075 C1051.78,1697.4075 1050.79107,1696.41857 1050.79107,1695.20116 C1050.79107,1693.98018 1051.78,1692.99125 1052.99741,1692.99125 Z M1144.19634,1692.99125 C1145.41732,1692.99125 1146.40625,1693.98018 1146.40625,1695.20116 C1146.40625,1696.41857 1145.41732,1697.4075 1144.19634,1697.4075 C1142.97535,1697.4075 1141.99,1696.41857 1141.99,1695.20116 C1141.99,1693.98018 1142.97535,1692.99125 1144.19634,1692.99125 Z M1098.59687,1692.99125 C1099.81786,1692.99125 1100.80678,1693.98018 1100.80678,1695.20116 C1100.80678,1696.41857 1099.81786,1697.4075 1098.59687,1697.4075 C1097.37946,1697.4075 1096.39054,1696.41857 1096.39054,1695.20116 C1096.39054,1693.98018 1097.37946,1692.99125 1098.59687,1692.99125 Z M688.209909,1692.99125 C689.430893,1692.99125 690.416249,1693.98018 690.416249,1695.20116 C690.416249,1696.41857 689.430893,1697.4075 688.209909,1697.4075 C686.988926,1697.4075 686,1696.41857 686,1695.20116 C686,1693.98018 686.988926,1692.99125 688.209909,1692.99125 Z M733.809373,1692.99125 C735.026787,1692.99125 736.015713,1693.98018 736.015713,1695.20116 C736.015713,1696.41857 735.026787,1697.4075 733.809373,1697.4075 C732.58839,1697.4075 731.599464,1696.41857 731.599464,1695.20116 C731.599464,1693.98018 732.58839,1692.99125 733.809373,1692.99125 Z M1007.40187,1692.99125 C1008.61929,1692.99125 1009.60821,1693.98018 1009.60821,1695.20116 C1009.60821,1696.41857 1008.61929,1697.4075 1007.40187,1697.4075 C1006.18089,1697.4075 1005.19196,1696.41857 1005.19196,1695.20116 C1005.19196,1693.98018 1006.18089,1692.99125 1007.40187,1692.99125 Z M1189.79545,1692.99125 C1191.01643,1692.99125 1192.00179,1693.98018 1192.00179,1695.20116 C1192.00179,1696.41857 1191.01643,1697.4075 1189.79545,1697.4075 C1188.57446,1697.4075 1187.58911,1696.41857 1187.58911,1695.20116 C1187.58911,1693.98018 1188.57446,1692.99125 1189.79545,1692.99125 Z M779.408838,1647.39214 C780.626251,1647.39214 781.615177,1648.38107 781.615177,1649.60205 C781.615177,1650.82304 780.626251,1651.81196 779.408838,1651.81196 C778.187854,1651.81196 777.198928,1650.82304 777.198928,1649.60205 C777.198928,1648.38107 778.187854,1647.39214 779.408838,1647.39214 Z M916.203303,1647.39214 C917.424286,1647.39214 918.409642,1648.38107 918.409642,1649.60205 C918.409642,1650.82304 917.424286,1651.81196 916.203303,1651.81196 C914.982319,1651.81196 913.996963,1650.82304 913.996963,1649.60205 C913.996963,1648.38107 914.982319,1647.39214 916.203303,1647.39214 Z M1189.79545,1647.39214 C1191.01643,1647.39214 1192.00179,1648.38107 1192.00179,1649.60205 C1192.00179,1650.82304 1191.01643,1651.81196 1189.79545,1651.81196 C1188.57446,1651.81196 1187.58911,1650.82304 1187.58911,1649.60205 C1187.58911,1648.38107 1188.57446,1647.39214 1189.79545,1647.39214 Z M961.80241,1647.39214 C963.023394,1647.39214 964.008749,1648.38107 964.008749,1649.60205 C964.008749,1650.82304 963.023394,1651.81196 961.80241,1651.81196 C960.581426,1651.81196 959.5925,1650.82304 959.5925,1649.60205 C959.5925,1648.38107 960.581426,1647.39214 961.80241,1647.39214 Z M1007.40187,1647.39214 C1008.61929,1647.39214 1009.60821,1648.38107 1009.60821,1649.60205 C1009.60821,1650.82304 1008.61929,1651.81196 1007.40187,1651.81196 C1006.18089,1651.81196 1005.19196,1650.82304 1005.19196,1649.60205 C1005.19196,1648.38107 1006.18089,1647.39214 1007.40187,1647.39214 Z M1144.19634,1647.39214 C1145.41732,1647.39214 1146.40625,1648.38107 1146.40625,1649.60205 C1146.40625,1650.82304 1145.41732,1651.81196 1144.19634,1651.81196 C1142.97535,1651.81196 1141.99,1650.82304 1141.99,1649.60205 C1141.99,1648.38107 1142.97535,1647.39214 1144.19634,1647.39214 Z M825.004374,1647.39214 C826.225358,1647.39214 827.214284,1648.38107 827.214284,1649.60205 C827.214284,1650.82304 826.225358,1651.81196 825.004374,1651.81196 C823.786961,1651.81196 822.798035,1650.82304 822.798035,1649.60205 C822.798035,1648.38107 823.786961,1647.39214 825.004374,1647.39214 Z M870.603839,1647.39214 C871.824822,1647.39214 872.813748,1648.38107 872.813748,1649.60205 C872.813748,1650.82304 871.824822,1651.81196 870.603839,1651.81196 C869.382855,1651.81196 868.397499,1650.82304 868.397499,1649.60205 C868.397499,1648.38107 869.382855,1647.39214 870.603839,1647.39214 Z M1098.59687,1647.39214 C1099.81786,1647.39214 1100.80678,1648.38107 1100.80678,1649.60205 C1100.80678,1650.82304 1099.81786,1651.81196 1098.59687,1651.81196 C1097.37946,1651.81196 1096.39054,1650.82304 1096.39054,1649.60205 C1096.39054,1648.38107 1097.37946,1647.39214 1098.59687,1647.39214 Z M688.209909,1647.39214 C689.430893,1647.39214 690.416249,1648.38107 690.416249,1649.60205 C690.416249,1650.82304 689.430893,1651.81196 688.209909,1651.81196 C686.988926,1651.81196 686,1650.82304 686,1649.60205 C686,1648.38107 686.988926,1647.39214 688.209909,1647.39214 Z M733.809373,1647.39214 C735.026787,1647.39214 736.015713,1648.38107 736.015713,1649.60205 C736.015713,1650.82304 735.026787,1651.81196 733.809373,1651.81196 C732.58839,1651.81196 731.599464,1650.82304 731.599464,1649.60205 C731.599464,1648.38107 732.58839,1647.39214 733.809373,1647.39214 Z M1052.99741,1647.39214 C1054.21839,1647.39214 1055.20732,1648.38107 1055.20732,1649.60205 C1055.20732,1650.82304 1054.21839,1651.81196 1052.99741,1651.81196 C1051.78,1651.81196 1050.79107,1650.82304 1050.79107,1649.60205 C1050.79107,1648.38107 1051.78,1647.39214 1052.99741,1647.39214 Z M733.809373,1601.79625 C735.026787,1601.79625 736.015713,1602.78518 736.015713,1604.00259 C736.015713,1605.22357 735.026787,1606.2125 733.809373,1606.2125 C732.58839,1606.2125 731.599464,1605.22357 731.599464,1604.00259 C731.599464,1602.78518 732.58839,1601.79625 733.809373,1601.79625 Z M916.203303,1601.79625 C917.424286,1601.79625 918.409642,1602.78518 918.409642,1604.00259 C918.409642,1605.22357 917.424286,1606.2125 916.203303,1606.2125 C914.982319,1606.2125 913.996963,1605.22357 913.996963,1604.00259 C913.996963,1602.78518 914.982319,1601.79625 916.203303,1601.79625 Z M870.603839,1601.79625 C871.824822,1601.79625 872.813748,1602.78518 872.813748,1604.00259 C872.813748,1605.22357 871.824822,1606.2125 870.603839,1606.2125 C869.382855,1606.2125 868.397499,1605.22357 868.397499,1604.00259 C868.397499,1602.78518 869.382855,1601.79625 870.603839,1601.79625 Z M1189.79545,1601.79625 C1191.01643,1601.79625 1192.00179,1602.78518 1192.00179,1604.00259 C1192.00179,1605.22357 1191.01643,1606.2125 1189.79545,1606.2125 C1188.57446,1606.2125 1187.58911,1605.22357 1187.58911,1604.00259 C1187.58911,1602.78518 1188.57446,1601.79625 1189.79545,1601.79625 Z M1052.99741,1601.79625 C1054.21839,1601.79625 1055.20732,1602.78518 1055.20732,1604.00259 C1055.20732,1605.22357 1054.21839,1606.2125 1052.99741,1606.2125 C1051.78,1606.2125 1050.79107,1605.22357 1050.79107,1604.00259 C1050.79107,1602.78518 1051.78,1601.79625 1052.99741,1601.79625 Z M1007.40187,1601.79625 C1008.61929,1601.79625 1009.60821,1602.78518 1009.60821,1604.00259 C1009.60821,1605.22357 1008.61929,1606.2125 1007.40187,1606.2125 C1006.18089,1606.2125 1005.19196,1605.22357 1005.19196,1604.00259 C1005.19196,1602.78518 1006.18089,1601.79625 1007.40187,1601.79625 Z M779.408838,1601.79625 C780.626251,1601.79625 781.615177,1602.78518 781.615177,1604.00259 C781.615177,1605.22357 780.626251,1606.2125 779.408838,1606.2125 C778.187854,1606.2125 777.198928,1605.22357 777.198928,1604.00259 C777.198928,1602.78518 778.187854,1601.79625 779.408838,1601.79625 Z M825.004374,1601.79625 C826.225358,1601.79625 827.214284,1602.78518 827.214284,1604.00259 C827.214284,1605.22357 826.225358,1606.2125 825.004374,1606.2125 C823.786961,1606.2125 822.798035,1605.22357 822.798035,1604.00259 C822.798035,1602.78518 823.786961,1601.79625 825.004374,1601.79625 Z M1144.19634,1601.79625 C1145.41732,1601.79625 1146.40625,1602.78518 1146.40625,1604.00259 C1146.40625,1605.22357 1145.41732,1606.2125 1144.19634,1606.2125 C1142.97535,1606.2125 1141.99,1605.22357 1141.99,1604.00259 C1141.99,1602.78518 1142.97535,1601.79625 1144.19634,1601.79625 Z M1098.59687,1601.79625 C1099.81786,1601.79625 1100.80678,1602.78518 1100.80678,1604.00259 C1100.80678,1605.22357 1099.81786,1606.2125 1098.59687,1606.2125 C1097.37946,1606.2125 1096.39054,1605.22357 1096.39054,1604.00259 C1096.39054,1602.78518 1097.37946,1601.79625 1098.59687,1601.79625 Z M961.80241,1601.79625 C963.023394,1601.79625 964.008749,1602.78518 964.008749,1604.00259 C964.008749,1605.22357 963.023394,1606.2125 961.80241,1606.2125 C960.581426,1606.2125 959.5925,1605.22357 959.5925,1604.00259 C959.5925,1602.78518 960.581426,1601.79625 961.80241,1601.79625 Z M688.209909,1601.79625 C689.430893,1601.79625 690.416249,1602.78518 690.416249,1604.00259 C690.416249,1605.22357 689.430893,1606.2125 688.209909,1606.2125 C686.988926,1606.2125 686,1605.22357 686,1604.00259 C686,1602.78518 686.988926,1601.79625 688.209909,1601.79625 Z M916.203303,1556.19536 C917.424286,1556.19536 918.409642,1557.18428 918.409642,1558.40527 C918.409642,1559.62268 917.424286,1560.61518 916.203303,1560.61518 C914.982319,1560.61518 913.996963,1559.62268 913.996963,1558.40527 C913.996963,1557.18428 914.982319,1556.19536 916.203303,1556.19536 Z M870.603839,1556.19536 C871.824822,1556.19536 872.813748,1557.18428 872.813748,1558.40527 C872.813748,1559.62268 871.824822,1560.61518 870.603839,1560.61518 C869.382855,1560.61518 868.397499,1559.62268 868.397499,1558.40527 C868.397499,1557.18428 869.382855,1556.19536 870.603839,1556.19536 Z M1189.79545,1556.19536 C1191.01643,1556.19536 1192.00179,1557.18428 1192.00179,1558.40527 C1192.00179,1559.62268 1191.01643,1560.61518 1189.79545,1560.61518 C1188.57446,1560.61518 1187.58911,1559.62268 1187.58911,1558.40527 C1187.58911,1557.18428 1188.57446,1556.19536 1189.79545,1556.19536 Z M1052.99741,1556.19536 C1054.21839,1556.19536 1055.20732,1557.18428 1055.20732,1558.40527 C1055.20732,1559.62268 1054.21839,1560.61518 1052.99741,1560.61518 C1051.78,1560.61518 1050.79107,1559.62268 1050.79107,1558.40527 C1050.79107,1557.18428 1051.78,1556.19536 1052.99741,1556.19536 Z M1007.40187,1556.19536 C1008.61929,1556.19536 1009.60821,1557.18428 1009.60821,1558.40527 C1009.60821,1559.62268 1008.61929,1560.61518 1007.40187,1560.61518 C1006.18089,1560.61518 1005.19196,1559.62268 1005.19196,1558.40527 C1005.19196,1557.18428 1006.18089,1556.19536 1007.40187,1556.19536 Z M688.209909,1556.19536 C689.430893,1556.19536 690.416249,1557.18428 690.416249,1558.40527 C690.416249,1559.62268 689.430893,1560.61518 688.209909,1560.61518 C686.988926,1560.61518 686,1559.62268 686,1558.40527 C686,1557.18428 686.988926,1556.19536 688.209909,1556.19536 Z M733.809373,1556.19536 C735.026787,1556.19536 736.015713,1557.18428 736.015713,1558.40527 C736.015713,1559.62268 735.026787,1560.61518 733.809373,1560.61518 C732.58839,1560.61518 731.599464,1559.62268 731.599464,1558.40527 C731.599464,1557.18428 732.58839,1556.19536 733.809373,1556.19536 Z M1098.59687,1556.19536 C1099.81786,1556.19536 1100.80678,1557.18428 1100.80678,1558.40527 C1100.80678,1559.62268 1099.81786,1560.61518 1098.59687,1560.61518 C1097.37946,1560.61518 1096.39054,1559.62268 1096.39054,1558.40527 C1096.39054,1557.18428 1097.37946,1556.19536 1098.59687,1556.19536 Z M961.80241,1556.19536 C963.023394,1556.19536 964.008749,1557.18428 964.008749,1558.40527 C964.008749,1559.62268 963.023394,1560.61518 961.80241,1560.61518 C960.581426,1560.61518 959.5925,1559.62268 959.5925,1558.40527 C959.5925,1557.18428 960.581426,1556.19536 961.80241,1556.19536 Z M779.408838,1556.19536 C780.626251,1556.19536 781.615177,1557.18428 781.615177,1558.40527 C781.615177,1559.62268 780.626251,1560.61518 779.408838,1560.61518 C778.187854,1560.61518 777.198928,1559.62268 777.198928,1558.40527 C777.198928,1557.18428 778.187854,1556.19536 779.408838,1556.19536 Z M825.004374,1556.19536 C826.225358,1556.19536 827.214284,1557.18428 827.214284,1558.40527 C827.214284,1559.62268 826.225358,1560.61518 825.004374,1560.61518 C823.786961,1560.61518 822.798035,1559.62268 822.798035,1558.40527 C822.798035,1557.18428 823.786961,1556.19536 825.004374,1556.19536 Z M1144.19634,1556.19536 C1145.41732,1556.19536 1146.40625,1557.18428 1146.40625,1558.40527 C1146.40625,1559.62268 1145.41732,1560.61518 1144.19634,1560.61518 C1142.97535,1560.61518 1141.99,1559.62268 1141.99,1558.40527 C1141.99,1557.18428 1142.97535,1556.19536 1144.19634,1556.19536 Z M1007.40187,1510.59589 C1008.61929,1510.59589 1009.60821,1511.58482 1009.60821,1512.8058 C1009.60821,1514.02679 1008.61929,1515.01571 1007.40187,1515.01571 C1006.18089,1515.01571 1005.19196,1514.02679 1005.19196,1512.8058 C1005.19196,1511.58482 1006.18089,1510.59589 1007.40187,1510.59589 Z M1144.19634,1510.59589 C1145.41732,1510.59589 1146.40625,1511.58482 1146.40625,1512.8058 C1146.40625,1514.02679 1145.41732,1515.01571 1144.19634,1515.01571 C1142.97535,1515.01571 1141.99,1514.02679 1141.99,1512.8058 C1141.99,1511.58482 1142.97535,1510.59589 1144.19634,1510.59589 Z M733.809373,1510.59589 C735.026787,1510.59589 736.015713,1511.58482 736.015713,1512.8058 C736.015713,1514.02679 735.026787,1515.01571 733.809373,1515.01571 C732.58839,1515.01571 731.599464,1514.02679 731.599464,1512.8058 C731.599464,1511.58482 732.58839,1510.59589 733.809373,1510.59589 Z M688.209909,1510.59589 C689.430893,1510.59589 690.416249,1511.58482 690.416249,1512.8058 C690.416249,1514.02679 689.430893,1515.01571 688.209909,1515.01571 C686.988926,1515.01571 686,1514.02679 686,1512.8058 C686,1511.58482 686.988926,1510.59589 688.209909,1510.59589 Z M1189.79545,1510.59589 C1191.01643,1510.59589 1192.00179,1511.58482 1192.00179,1512.8058 C1192.00179,1514.02679 1191.01643,1515.01571 1189.79545,1515.01571 C1188.57446,1515.01571 1187.58911,1514.02679 1187.58911,1512.8058 C1187.58911,1511.58482 1188.57446,1510.59589 1189.79545,1510.59589 Z M961.80241,1510.59589 C963.023394,1510.59589 964.008749,1511.58482 964.008749,1512.8058 C964.008749,1514.02679 963.023394,1515.01571 961.80241,1515.01571 C960.581426,1515.01571 959.5925,1514.02679 959.5925,1512.8058 C959.5925,1511.58482 960.581426,1510.59589 961.80241,1510.59589 Z M870.603839,1510.59589 C871.824822,1510.59589 872.813748,1511.58482 872.813748,1512.8058 C872.813748,1514.02679 871.824822,1515.01571 870.603839,1515.01571 C869.382855,1515.01571 868.397499,1514.02679 868.397499,1512.8058 C868.397499,1511.58482 869.382855,1510.59589 870.603839,1510.59589 Z M1052.99741,1510.59589 C1054.21839,1510.59589 1055.20732,1511.58482 1055.20732,1512.8058 C1055.20732,1514.02679 1054.21839,1515.01571 1052.99741,1515.01571 C1051.78,1515.01571 1050.79107,1514.02679 1050.79107,1512.8058 C1050.79107,1511.58482 1051.78,1510.59589 1052.99741,1510.59589 Z M1098.59687,1510.59589 C1099.81786,1510.59589 1100.80678,1511.58482 1100.80678,1512.8058 C1100.80678,1514.02679 1099.81786,1515.01571 1098.59687,1515.01571 C1097.37946,1515.01571 1096.39054,1514.02679 1096.39054,1512.8058 C1096.39054,1511.58482 1097.37946,1510.59589 1098.59687,1510.59589 Z M825.004374,1510.59589 C826.225358,1510.59589 827.214284,1511.58482 827.214284,1512.8058 C827.214284,1514.02679 826.225358,1515.01571 825.004374,1515.01571 C823.786961,1515.01571 822.798035,1514.02679 822.798035,1512.8058 C822.798035,1511.58482 823.786961,1510.59589 825.004374,1510.59589 Z M916.203303,1510.59589 C917.424286,1510.59589 918.409642,1511.58482 918.409642,1512.8058 C918.409642,1514.02679 917.424286,1515.01571 916.203303,1515.01571 C914.982319,1515.01571 913.996963,1514.02679 913.996963,1512.8058 C913.996963,1511.58482 914.982319,1510.59589 916.203303,1510.59589 Z M779.408838,1510.59589 C780.626251,1510.59589 781.615177,1511.58482 781.615177,1512.8058 C781.615177,1514.02679 780.626251,1515.01571 779.408838,1515.01571 C778.187854,1515.01571 777.198928,1514.02679 777.198928,1512.8058 C777.198928,1511.58482 778.187854,1510.59589 779.408838,1510.59589 Z M688.209909,1465 C689.430893,1465 690.416249,1465.98893 690.416249,1467.20634 C690.416249,1468.42732 689.430893,1469.41625 688.209909,1469.41625 C686.988926,1469.41625 686,1468.42732 686,1467.20634 C686,1465.98893 686.988926,1465 688.209909,1465 Z M733.809373,1465 C735.026787,1465 736.015713,1465.98893 736.015713,1467.20634 C736.015713,1468.42732 735.026787,1469.41625 733.809373,1469.41625 C732.58839,1469.41625 731.599464,1468.42732 731.599464,1467.20634 C731.599464,1465.98893 732.58839,1465 733.809373,1465 Z M779.408838,1465 C780.626251,1465 781.615177,1465.98893 781.615177,1467.20634 C781.615177,1468.42732 780.626251,1469.41625 779.408838,1469.41625 C778.187854,1469.41625 777.198928,1468.42732 777.198928,1467.20634 C777.198928,1465.98893 778.187854,1465 779.408838,1465 Z M825.004374,1465 C826.225358,1465 827.214284,1465.98893 827.214284,1467.20634 C827.214284,1468.42732 826.225358,1469.41625 825.004374,1469.41625 C823.786961,1469.41625 822.798035,1468.42732 822.798035,1467.20634 C822.798035,1465.98893 823.786961,1465 825.004374,1465 Z M870.603839,1465 C871.824822,1465 872.813748,1465.98893 872.813748,1467.20634 C872.813748,1468.42732 871.824822,1469.41625 870.603839,1469.41625 C869.382855,1469.41625 868.397499,1468.42732 868.397499,1467.20634 C868.397499,1465.98893 869.382855,1465 870.603839,1465 Z M916.203303,1465 C917.424286,1465 918.409642,1465.98893 918.409642,1467.20634 C918.409642,1468.42732 917.424286,1469.41625 916.203303,1469.41625 C914.982319,1469.41625 913.996963,1468.42732 913.996963,1467.20634 C913.996963,1465.98893 914.982319,1465 916.203303,1465 Z M961.80241,1465 C963.023394,1465 964.008749,1465.98893 964.008749,1467.20634 C964.008749,1468.42732 963.023394,1469.41625 961.80241,1469.41625 C960.581426,1469.41625 959.5925,1468.42732 959.5925,1467.20634 C959.5925,1465.98893 960.581426,1465 961.80241,1465 Z M1007.40187,1465 C1008.61929,1465 1009.60821,1465.98893 1009.60821,1467.20634 C1009.60821,1468.42732 1008.61929,1469.41625 1007.40187,1469.41625 C1006.18089,1469.41625 1005.19196,1468.42732 1005.19196,1467.20634 C1005.19196,1465.98893 1006.18089,1465 1007.40187,1465 Z M1052.99741,1465 C1054.21839,1465 1055.20732,1465.98893 1055.20732,1467.20634 C1055.20732,1468.42732 1054.21839,1469.41625 1052.99741,1469.41625 C1051.78,1469.41625 1050.79107,1468.42732 1050.79107,1467.20634 C1050.79107,1465.98893 1051.78,1465 1052.99741,1465 Z M1098.59687,1465 C1099.81786,1465 1100.80678,1465.98893 1100.80678,1467.20634 C1100.80678,1468.42732 1099.81786,1469.41625 1098.59687,1469.41625 C1097.37946,1469.41625 1096.39054,1468.42732 1096.39054,1467.20634 C1096.39054,1465.98893 1097.37946,1465 1098.59687,1465 Z M1144.19634,1465 C1145.41732,1465 1146.40625,1465.98893 1146.40625,1467.20634 C1146.40625,1468.42732 1145.41732,1469.41625 1144.19634,1469.41625 C1142.97535,1469.41625 1141.99,1468.42732 1141.99,1467.20634 C1141.99,1465.98893 1142.97535,1465 1144.19634,1465 Z M1189.79545,1465 C1191.01643,1465 1192.00179,1465.98893 1192.00179,1467.20634 C1192.00179,1468.42732 1191.01643,1469.41625 1189.79545,1469.41625 C1188.57446,1469.41625 1187.58911,1468.42732 1187.58911,1467.20634 C1187.58911,1465.98893 1188.57446,1465 1189.79545,1465 Z" id="Combined-Shape-Copy"></path>
        </g>
    </g>
</svg>