<?xml version="1.0" encoding="UTF-8"?>
<svg width="20px" height="29px" viewBox="0 0 20 29" version="1.1" xmlns="http://www.w3.org/2000/svg" xmlns:xlink="http://www.w3.org/1999/xlink">
    <title>Fill 1</title>
    <g id="Home" stroke="none" stroke-width="1" fill="none" fill-rule="evenodd">
        <g id="New-Approach---Wide" transform="translate(-357.000000, -6420.000000)" fill="#26AC77">
            <g id="Group-44" transform="translate(0.000000, 5954.000000)">
                <g id="Group-34" transform="translate(353.000000, 124.000000)">
                    <g id="Group-24" transform="translate(0.000000, 288.000000)">
                        <g id="Group-40" transform="translate(4.000000, 52.000000)">
                            <path d="M10,2 C4.45544986,2 0,6.43995615 0,11.9691305 C0,17.4965649 10,31 10,31 C10,31 20,17.4965649 20,11.9691305 C20,6.43995615 15.5445501,2 10,2 Z M10,16.4991298 C7.45527533,16.4991298 5.45422812,14.5059997 5.45422812,11.9673905 C5.45422812,9.4305213 7.45352998,7.43565122 10,7.43565122 C12.5447247,7.43565122 14.5457719,9.42878133 14.5457719,11.9673905 C14.5457719,14.5059562 12.5447683,16.4991298 10,16.4991298 Z" id="Fill-1"></path>
                        </g>
                    </g>
                </g>
            </g>
        </g>
    </g>
</svg>