<?xml version="1.0" encoding="UTF-8"?>
<svg width="184px" height="28px" viewBox="0 0 184 28" version="1.1" xmlns="http://www.w3.org/2000/svg" xmlns:xlink="http://www.w3.org/1999/xlink">
    <title>Group 13</title>
    <defs>
        <polygon id="path-1" points="0 26.7826087 183.957565 26.7826087 183.957565 0.647652174 0 0.647652174"></polygon>
    </defs>
    <g id="Home" stroke="none" stroke-width="1" fill="none" fill-rule="evenodd">
        <g id="New-Approach---Wide" transform="translate(-231.000000, -65.000000)">
            <g id="Group-13" transform="translate(231.000000, 65.000000)">
                <polygon id="Fill-1" fill="#00D378" points="25.6637043 1.21787826 19.3564 9.59961739 16.9678783 6.31753043 11.5650957 6.31753043 16.9216174 13.6510957 19.1141391 16.6933565 21.3042261 13.6510957 30.5125739 1.21787826"></polygon>
                <polygon id="Fill-2" fill="#FFFFFF" points="32.3162609 1.23321739 19.1148696 19.313913 8.62217391 4.8853913 15.7037391 4.8853913 12.9646087 1.23321739 -0.000608695652 1.23321739 16.4268696 23.6222609 19.1136522 27.3523478 38.2096522 1.23321739"></polygon>
                <polygon id="Fill-3" fill="#FFFFFF" points="45.0433565 1.35483478 45.0433565 26.798313 64.5216174 26.798313 64.5216174 22.2939652 50.2781391 22.2939652 50.2781391 16.3287478 61.3564 16.3287478 61.3564 11.9461391 50.2781391 11.9461391 50.2781391 5.73744348 63.6694435 5.73744348 63.6694435 1.35483478"></polygon>
                <g id="Group-12" transform="translate(0.000000, 0.569861)">
                    <path d="M91.182487,9.06335652 C91.182487,12.3466609 87.7506609,12.8372696 85.7042261,12.8372696 L81.0781391,12.8372696 L81.0781391,5.28944348 L86.0694435,5.28944348 C87.9795304,5.28944348 91.182487,5.78005217 91.182487,9.06335652 M96.5390087,9.06335652 C96.5390087,3.87970435 92.9002261,0.906834783 86.5564,0.906834783 L75.9650957,0.906834783 L75.9650957,26.2285739 L81.1998783,26.2285739 L81.1998783,17.2198783 L84.9177913,17.2198783 L91.8569217,26.2285739 L98.1496174,26.2285739 L90.6577913,16.6136174 C94.4597043,15.5240522 96.5390087,12.8725739 96.5390087,9.06335652" id="Fill-4" fill="#FFFFFF"></path>
                    <mask id="mask-2" fill="white">
                        <use xlink:href="#path-1"></use>
                    </mask>
                    <g id="Clip-7"></g>
                    <polygon id="Fill-6" fill="#FFFFFF" mask="url(#mask-2)" points="108.713043 26.1069565 113.947826 26.1069565 113.947826 0.785217391 108.713043 0.785217391"></polygon>
                    <polygon id="Fill-8" fill="#FFFFFF" mask="url(#mask-2)" points="126.97367 26.2286957 132.208452 26.2286957 132.208452 16.1243478 144.260626 16.1243478 144.260626 11.7417391 132.208452 11.7417391 132.208452 5.16782609 146.330191 5.16782609 146.330191 0.785217391 126.97367 0.785217391"></polygon>
                    <polygon id="Fill-9" fill="#FFFFFF" mask="url(#mask-2)" points="173.035983 0.78533913 166.530243 10.3102087 159.7932 0.78533913 153.795113 0.78533913 163.860504 14.9789043 163.860504 26.2288174 169.096504 26.2288174 169.096504 14.9789043 179.160678 0.78533913"></polygon>
                    <polygon id="Fill-10" fill="#FFFFFF" mask="url(#mask-2)" points="183.250626 23.5881739 182.398452 25.6175652 181.545061 23.5881739 180.817061 23.5881739 180.817061 26.2591304 181.2748 26.2591304 181.2748 24.0166957 181.289409 24.0166957 182.23167 26.2591304 182.543322 26.2591304 183.485583 24.0166957 183.500191 24.0166957 183.500191 26.2591304 183.95793 26.2591304 183.95793 23.5881739"></polygon>
                    <polygon id="Fill-11" fill="#FFFFFF" mask="url(#mask-2)" points="177.982852 24.0162087 178.883722 24.0162087 178.883722 26.2598609 179.341461 26.2598609 179.341461 24.0162087 180.241113 24.0162087 180.241113 23.587687 177.982852 23.587687"></polygon>
                </g>
            </g>
        </g>
    </g>
</svg>