<?xml version="1.0" encoding="UTF-8"?>
<svg width="20px" height="22px" viewBox="0 0 20 22" version="1.1" xmlns="http://www.w3.org/2000/svg" xmlns:xlink="http://www.w3.org/1999/xlink">
    <title>Fill 1</title>
    <g id="Home" stroke="none" stroke-width="1" fill="none" fill-rule="evenodd">
        <g id="New-Approach---Wide" transform="translate(-353.000000, -6372.000000)" fill="#26AC77">
            <g id="Group-44" transform="translate(0.000000, 5954.000000)">
                <g id="Group-34" transform="translate(353.000000, 124.000000)">
                    <g id="Group-39" transform="translate(0.000000, 288.000000)">
                        <path d="M19.5627328,23.1378484 L19.4423544,22.8932061 C19.1056802,22.0856907 14.9637981,20.862479 14.6272202,20.838602 L14.3620026,20.8634478 C13.8560283,20.9609231 13.3030583,21.4263209 12.2196531,22.3800346 C12.0033477,22.5759393 11.7136788,22.6246769 11.4494243,22.4775099 C10.0293449,21.6699945 8.29502988,20.0559422 7.42902799,19.0774707 C6.49046204,18.025313 5.35813508,16.2890374 4.82861477,14.8935976 C4.73268767,14.6240996 4.82861477,14.3307245 5.02140793,14.1348149 C6.24965236,13.0090688 6.77912452,12.4710513 6.82708325,11.8843012 C6.8515345,11.5421933 6.12927401,7.21114334 5.382543,6.79549601 L5.16623754,6.64832897 C4.68472412,6.33009823 3.96245399,5.86566922 3.16776424,6.03672314 C2.97497109,6.08546079 2.7821683,6.15904431 2.61383121,6.2565196 C2.0834201,6.59958154 0.7592582,7.52941812 0.157390021,8.72789644 C-0.203745043,9.4866791 -0.372082134,16.3604926 4.6838574,22.1592498 C9.69183771,27.9083443 15.8790444,28.1529867 16.7941606,27.9570279 L16.8186119,27.9570279 L16.8910267,27.932182 C18.142769,27.467753 19.2026763,26.2684189 19.6118183,25.7552572 C20.3566714,24.8502763 19.8516336,23.7493858 19.5629133,23.1378289 L19.5627328,23.1378484 Z" id="Fill-1"></path>
                    </g>
                </g>
            </g>
        </g>
    </g>
</svg>